<?xml version="1.0" encoding="UTF-8" standalone="no"?>
<svg width="70px" height="102px" viewBox="0 0 70 102" version="1.1" xmlns="http://www.w3.org/2000/svg" xmlns:xlink="http://www.w3.org/1999/xlink">
    <!-- Generator: Sketch 3.7 (28169) - http://www.bohemiancoding.com/sketch -->
    <title>chrome</title>
    <desc>Created with Sketch.</desc>
    <defs>
        <path d="M30.1076487,68.944849 C13.1197085,66.7344904 0,52.2083831 0,34.6180036 C0,27.6761955 2.04323804,21.2116113 5.56111887,15.7928462 L20.1119435,40.9956083 C22.5658247,46.5689757 28.137499,50.4601408 34.6180036,50.4601408 C37.1873169,50.4601408 39.6137741,49.8485004 41.7597132,48.7628813 L30.1076487,68.944849 Z M32.6803905,69.1826961 C33.3217631,69.218081 33.9677899,69.2360071 34.6180036,69.2360071 C53.736999,69.2360071 69.2360071,53.736999 69.2360071,34.6180036 C69.2360071,29.8304575 68.2641561,25.2698994 66.5069736,21.1228489 L42.9200803,21.1228496 C47.4444,23.9120956 50.4601408,28.9128676 50.4601408,34.6180036 C50.4601408,38.490383 49.0707711,42.0382577 46.7633297,44.7903298 L32.6803905,69.1826961 Z M7.04965463,13.6770961 C13.3728189,5.36557603 23.3688125,0 34.6180036,0 C48.0281067,0 59.6573033,7.62496763 65.4065566,18.7758663 L34.0312577,18.7758663 L34.0312577,18.7865307 C25.7563503,19.0878119 19.1008463,25.7356873 18.7874137,34.0074887 L7.04965608,13.6770962 Z M34.6180036,46.9396658 C41.4230697,46.9396658 46.9396658,41.4230697 46.9396658,34.6180036 C46.9396658,27.8129374 41.4230697,22.2963413 34.6180036,22.2963413 C27.8129374,22.2963413 22.2963413,27.8129374 22.2963413,34.6180036 C22.2963413,41.4230697 27.8129374,46.9396658 34.6180036,46.9396658 Z" id="path-1"></path>
    </defs>
    <g id="Page-1" stroke="none" stroke-width="1" fill="none" fill-rule="evenodd">
        <g id="iPad-Landscape" transform="translate(-212.000000, -865.000000)">
            <g id="chrome" transform="translate(212.000000, 865.000000)">
                <path d="M13.1475015,90.6015625 C11.8922869,90.6015625 10.9014114,91.0195271 10.1748453,91.8554688 C9.44827916,92.6914104 9.08500155,93.8359302 9.08500155,95.2890625 C9.08500155,96.7838616 9.43525846,97.938798 10.1357828,98.7539062 C10.8363071,99.5690145 11.8349951,99.9765625 13.1318765,99.9765625 C13.9287555,99.9765625 14.8376006,99.8333348 15.858439,99.546875 L15.858439,100.710938 C15.0667684,101.007814 14.0902157,101.15625 12.9287515,101.15625 C11.2464515,101.15625 9.94828737,100.645838 9.0342203,99.625 C8.12015323,98.6041616 7.66312655,97.1536552 7.66312655,95.2734375 C7.66312655,94.0963483 7.88317643,93.0651086 8.3232828,92.1796875 C8.76338916,91.2942664 9.39879948,90.6119816 10.2295328,90.1328125 C11.0602661,89.6536434 12.0381209,89.4140625 13.1631265,89.4140625 C14.3610492,89.4140625 15.4079137,89.6328103 16.3037515,90.0703125 L15.7412515,91.2109375 C14.8766639,90.8046855 14.0120892,90.6015625 13.1475015,90.6015625 L13.1475015,90.6015625 Z M24.014689,101 L24.014689,95.4609375 C24.014689,94.7630173 23.8558365,94.2421892 23.5381265,93.8984375 C23.2204166,93.5546858 22.7230258,93.3828125 22.045939,93.3828125 C21.1448929,93.3828125 20.4873474,93.6276017 20.0732828,94.1171875 C19.6592182,94.6067733 19.452189,95.4088486 19.452189,96.5234375 L19.452189,101 L18.155314,101 L18.155314,88.84375 L19.452189,88.84375 L19.452189,92.5234375 C19.452189,92.966148 19.4313559,93.3333319 19.389689,93.625 L19.467814,93.625 C19.7230237,93.2135396 20.0863013,92.8893241 20.5576578,92.6523438 C21.0290143,92.4153634 21.5667694,92.296875 22.170939,92.296875 C23.2178193,92.296875 24.0029677,92.5455704 24.5264078,93.0429688 C25.0498479,93.5403671 25.311564,94.3307238 25.311564,95.4140625 L25.311564,101 L24.014689,101 Z M31.8818765,92.28125 C32.2620868,92.28125 32.6032292,92.3124997 32.905314,92.375 L32.7256265,93.578125 C32.3714581,93.4999996 32.0589612,93.4609375 31.7881265,93.4609375 C31.0954148,93.4609375 30.5029728,93.7421847 30.0107828,94.3046875 C29.5185928,94.8671903 29.2725015,95.5677041 29.2725015,96.40625 L29.2725015,101 L27.9756265,101 L27.9756265,92.4375 L29.045939,92.4375 L29.1943765,94.0234375 L29.2568765,94.0234375 C29.5745865,93.466143 29.9573951,93.0364598 30.405314,92.734375 C30.853233,92.4322902 31.3454155,92.28125 31.8818765,92.28125 L31.8818765,92.28125 Z M41.577189,96.7109375 C41.577189,98.1067778 41.2256301,99.1966107 40.5225015,99.9804688 C39.819373,100.764327 38.8480286,101.15625 37.608439,101.15625 C36.8428102,101.15625 36.1631295,100.976564 35.5693765,100.617188 C34.9756236,100.257811 34.5172948,99.7421909 34.1943765,99.0703125 C33.8714583,98.3984341 33.7100015,97.6119837 33.7100015,96.7109375 C33.7100015,95.3150972 34.0589564,94.2278685 34.7568765,93.4492188 C35.4547967,92.670569 36.423537,92.28125 37.6631265,92.28125 C38.8610492,92.28125 39.8128626,92.6796835 40.5185953,93.4765625 C41.224328,94.2734415 41.577189,95.3515557 41.577189,96.7109375 L41.577189,96.7109375 Z M35.0537515,96.7109375 C35.0537515,97.804693 35.2724994,98.638018 35.7100015,99.2109375 C36.1475037,99.783857 36.7907265,100.070312 37.639689,100.070312 C38.4886516,100.070312 39.1331764,99.7851591 39.5732828,99.2148438 C40.0133892,98.6445284 40.233439,97.8099013 40.233439,96.7109375 C40.233439,95.6223904 40.0133892,94.7955757 39.5732828,94.2304688 C39.1331764,93.6653618 38.4834433,93.3828125 37.624064,93.3828125 C36.7751015,93.3828125 36.1344829,93.6614555 35.702189,94.21875 C35.2698952,94.7760445 35.0537515,95.6067653 35.0537515,96.7109375 L35.0537515,96.7109375 Z M54.764689,101 L54.764689,95.4296875 C54.764689,94.7473924 54.6188572,94.2356788 54.327189,93.8945312 C54.0355209,93.5533837 53.5824005,93.3828125 52.967814,93.3828125 C52.1605183,93.3828125 51.5641701,93.614581 51.1787515,94.078125 C50.793333,94.541669 50.6006265,95.2552035 50.6006265,96.21875 L50.6006265,101 L49.3037515,101 L49.3037515,95.4296875 C49.3037515,94.7473924 49.1579197,94.2356788 48.8662515,93.8945312 C48.5745834,93.5533837 48.1188588,93.3828125 47.499064,93.3828125 C46.68656,93.3828125 46.0915139,93.6262996 45.7139078,94.1132812 C45.3363017,94.6002629 45.1475015,95.398432 45.1475015,96.5078125 L45.1475015,101 L43.8506265,101 L43.8506265,92.4375 L44.905314,92.4375 L45.1162515,93.609375 L45.1787515,93.609375 C45.4235444,93.1927063 45.7685931,92.8671887 46.2139078,92.6328125 C46.6592225,92.3984363 47.1579155,92.28125 47.7100015,92.28125 C49.0485499,92.28125 49.9235412,92.7656202 50.3350015,93.734375 L50.3975015,93.734375 C50.6527112,93.2864561 51.0224991,92.932293 51.5068765,92.671875 C51.991254,92.411457 52.5433318,92.28125 53.1631265,92.28125 C54.1318814,92.28125 54.8571346,92.5299454 55.3389078,93.0273438 C55.820681,93.5247421 56.061564,94.320307 56.061564,95.4140625 L56.061564,101 L54.764689,101 Z M62.3506265,101.15625 C61.0849952,101.15625 60.0863073,100.770837 59.3545328,100 C58.6227583,99.2291628 58.2568765,98.158861 58.2568765,96.7890625 C58.2568765,95.4088473 58.5967169,94.3125041 59.2764078,93.5 C59.9560987,92.6874959 60.86885,92.28125 62.014689,92.28125 C63.0876111,92.28125 63.9365609,92.6341111 64.561564,93.3398438 C65.1865672,94.0455764 65.499064,94.9765567 65.499064,96.1328125 L65.499064,96.953125 L59.6006265,96.953125 C59.6266683,97.9583384 59.8805721,98.7213516 60.3623453,99.2421875 C60.8441185,99.7630234 61.5224972,100.023438 62.3975015,100.023438 C63.3193812,100.023438 64.2308304,99.8307311 65.1318765,99.4453125 L65.1318765,100.601562 C64.6735409,100.79948 64.2399515,100.941406 63.8310953,101.027344 C63.4222391,101.113282 62.9287544,101.15625 62.3506265,101.15625 L62.3506265,101.15625 Z M61.999064,93.3671875 C61.3115606,93.3671875 60.763389,93.5911436 60.3545328,94.0390625 C59.9456766,94.4869814 59.7047936,95.1067669 59.6318765,95.8984375 L64.108439,95.8984375 C64.108439,95.0807251 63.9261492,94.4544293 63.561564,94.0195312 C63.1969789,93.5846332 62.6761508,93.3671875 61.999064,93.3671875 L61.999064,93.3671875 Z" id="Chrome" fill="#999999"></path>
                <g id="img">
                    <mask id="mask-2" fill="white">
                        <use xlink:href="#path-1"></use>
                    </mask>
                    <use id="Oval-1" fill="#56AFEF" xlink:href="#path-1"></use>
                    <polygon id="Path-14" fill="#FB6757" mask="url(#mask-2)" points="5.21539109 10.4399501 19.0772612 37.1655347 20.895944 29.3796927 25.9829845 22.9094448 34.7830258 20.5796513 43.7251697 20.0685407 76.561162 19.6158755 42.4932327 -4.21035968 19.0279837 0.0630293365"></polygon>
                    <polygon id="Path-15" fill="#F6D923" mask="url(#mask-2)" points="39.8150588 19.9699858 45.1290049 25.4260343 48.5474869 30.8820829 48.5474869 35.4660346 45.9919338 42.5150064 31.0322073 70.6994337 38.9601518 71.1349091 56.1740366 65.3270423 68.3100489 50.2916806 72.3748681 35.1818296 70.6306744 23.3391903 68.4441295 20.2049133"></polygon>
                    <polygon id="Path-16" fill="#6CE84E" mask="url(#mask-2)" points="5.38270533 13.774775 11.3418426 23.7987315 19.9906135 36.9569649 24.3488057 44.2225284 28.1282739 47.0634325 33.0055985 48.44664 39.6271168 48.2953696 43.4237749 46.7620377 29.9057012 71.4683916 6.1459333 62.2408968 -3.73477468 40.6688199 -2.64494016 24.4611125"></polygon>
                </g>
            </g>
        </g>
    </g>
</svg>